D:\school\WTK\thesis\model\3dpredictsim\Results\Batchsim_tmt_linear\Pog_s1_tmt_bCst_d00_k800_ig24_pas_GRF.mot
nRows=22
nColumns=19

name D:\school\WTK\thesis\model\3dpredictsim\Results\Batchsim_tmt_linear\Pog_s1_tmt_bCst_d00_k800_ig24_pas_GRF.mot
datacolumns 19
datarows 22
range 0.5546588815 0.7876156117
endheader
time 	ground_force_vx	ground_force_vy	ground_force_vz	ground_force_px	ground_force_py	ground_force_pz	1_ground_force_vx	1_ground_force_vy	1_ground_force_vz	1_ground_force_px	1_ground_force_py	1_ground_force_pz	ground_torque_x	ground_torque_y	ground_torque_z	1_ground_torque_x	1_ground_torque_y	1_ground_torque_z
        0.5546588815	       94.6777880399	      473.5924661832	        4.9196125940	        0.3734793080	        0.0000000000	        0.0346988351	      -94.4367172447	       89.1702721400	      -43.1189838259	        0.8635294936	        0.0000000000	       -0.0376158069	        0.0000000000	        0.0000000000	        0.0000000000	        0.0000000000	        0.0000000000	        0.0000000000	
        0.5657520591	       76.3764947091	      389.9935580832	       10.4402604501	        0.3775666472	        0.0000000000	        0.0335092052	      -89.5233102095	      188.7641057912	      -78.8101281138	        0.8695153795	        0.0000000000	       -0.0357880654	        0.0000000000	        0.0000000000	        0.0000000000	        0.0000000000	        0.0000000000	        0.0000000000	
        0.5768452367	       56.0228708364	      302.1397490595	        7.8108336333	        0.3839105284	        0.0000000000	        0.0310270597	      -47.1197648108	      345.0648134010	      -17.9014976627	        0.8733675274	        0.0000000000	       -0.0338835693	        0.0000000000	        0.0000000000	        0.0000000000	        0.0000000000	        0.0000000000	        0.0000000000	
        0.5879384144	       27.8086855359	      200.1498095456	        6.1443348237	        0.3962499413	        0.0000000000	        0.0254549933	      -49.0817604119	      506.4846222027	        1.3300708617	        0.8780204096	        0.0000000000	       -0.0345984369	        0.0000000000	        0.0000000000	        0.0000000000	        0.0000000000	        0.0000000000	        0.0000000000	
        0.5990315920	        8.2508548527	      138.2468012526	       10.4750037071	        0.4095970147	        0.0000000000	        0.0185693111	      -83.5627503063	      684.7969049583	        8.9609964429	        0.8861191096	        0.0000000000	       -0.0370611945	        0.0000000000	        0.0000000000	        0.0000000000	        0.0000000000	        0.0000000000	        0.0000000000	
        0.6101247696	        1.5426286393	      109.0177780182	       11.6456931030	        0.4094408398	        0.0000000000	        0.0188858206	     -106.6017098792	      800.9645704132	       12.3569565061	        0.8919197410	        0.0000000000	       -0.0387334258	        0.0000000000	        0.0000000000	        0.0000000000	        0.0000000000	        0.0000000000	        0.0000000000	
        0.6212179472	       -2.1621585815	       71.4962790430	       10.7049501013	        0.4099372036	        0.0000000000	        0.0189370955	     -111.8477105463	      844.4057098043	       13.4879924115	        0.8959094436	        0.0000000000	       -0.0397505429	        0.0000000000	        0.0000000000	        0.0000000000	        0.0000000000	        0.0000000000	        0.0000000000	
        0.6323111249	       -8.0674607657	       29.6688584938	        5.7733344502	        0.4096365244	        0.0000000000	        0.0187604713	     -107.4056301270	      841.8834061525	       13.6955016728	        0.8989881797	        0.0000000000	       -0.0403588566	        0.0000000000	        0.0000000000	        0.0000000000	        0.0000000000	        0.0000000000	        0.0000000000	
        0.6434043025	        0.1011149255	       -0.1007492706	       -0.0025223785	        0.0000000000	        0.0000000000	        0.0000000000	      -98.0230673789	      823.1912066306	       14.0391604825	        0.9020101567	        0.0000000000	       -0.0406873526	        0.0000000000	        0.0000000000	        0.0000000000	        0.0000000000	        0.0000000000	        0.0000000000	
        0.6544974801	        0.0001017594	       -0.0000830543	        0.0000056968	        0.0000000000	        0.0000000000	        0.0000000000	      -85.8821975193	      793.9707530032	       14.8476504406	        0.9052195724	        0.0000000000	       -0.0408338495	        0.0000000000	        0.0000000000	        0.0000000000	        0.0000000000	        0.0000000000	        0.0000000000	
        0.6655906578	        0.0000384825	       -0.0000272985	        0.0000028369	        0.0000000000	        0.0000000000	        0.0000000000	      -73.9219733820	      758.9104684304	       15.0981812482	        0.9087093996	        0.0000000000	       -0.0409063737	        0.0000000000	        0.0000000000	        0.0000000000	        0.0000000000	        0.0000000000	        0.0000000000	
        0.6766838354	        0.0003695740	       -0.0002348401	        0.0000304064	        0.0000000000	        0.0000000000	        0.0000000000	      -64.1925038839	      727.5097413133	       15.1998118952	        0.9129291252	        0.0000000000	       -0.0408551080	        0.0000000000	        0.0000000000	        0.0000000000	        0.0000000000	        0.0000000000	        0.0000000000	
        0.6877770130	        0.0051559325	       -0.0030004662	        0.0004493357	        0.0000000000	        0.0000000000	        0.0000000000	      -54.8585613401	      697.8207523082	       15.7356650573	        0.9173482483	        0.0000000000	       -0.0407577440	        0.0000000000	        0.0000000000	        0.0000000000	        0.0000000000	        0.0000000000	        0.0000000000	
        0.6988701906	       -0.0250654655	        0.0135522387	       -0.0022725400	        0.0000000000	        0.0000000000	        0.0000000000	      -45.6207972518	      669.1902475928	       16.2611020073	        0.9216830444	        0.0000000000	       -0.0407085648	        0.0000000000	        0.0000000000	        0.0000000000	        0.0000000000	        0.0000000000	        0.0000000000	
        0.7099633683	       -0.0175522357	        0.0089171148	       -0.0016421415	        0.0000000000	        0.0000000000	        0.0000000000	      -37.6102714153	      643.6848699300	       16.7787179611	        0.9260665510	        0.0000000000	       -0.0407118976	        0.0000000000	        0.0000000000	        0.0000000000	        0.0000000000	        0.0000000000	        0.0000000000	
        0.7210565459	       -0.0124030266	        0.0059749892	       -0.0011907946	        0.0000000000	        0.0000000000	        0.0000000000	      -30.9897237568	      622.4633496740	       17.4104947915	        0.9304662359	        0.0000000000	       -0.0407440378	        0.0000000000	        0.0000000000	        0.0000000000	        0.0000000000	        0.0000000000	        0.0000000000	
        0.7321497235	       -0.0113958066	        0.0052460389	       -0.0011135823	        0.0000000000	        0.0000000000	        0.0000000000	      -25.3474688947	      605.6575768183	       17.9212710025	        0.9349590749	        0.0000000000	       -0.0407923242	        0.0000000000	        0.0000000000	        0.0000000000	        0.0000000000	        0.0000000000	        0.0000000000	
        0.7432429012	       -0.0140825984	        0.0062320869	       -0.0013945257	        0.0000000000	        0.0000000000	        0.0000000000	      -20.8033380124	      593.5172941468	       18.2665095874	        0.9397721617	        0.0000000000	       -0.0408293363	        0.0000000000	        0.0000000000	        0.0000000000	        0.0000000000	        0.0000000000	        0.0000000000	
        0.7543360788	       -0.0224983187	        0.0096192499	       -0.0022407261	        0.0000000000	        0.0000000000	        0.0000000000	      -17.5743209509	      585.7553176057	       18.2760524273	        0.9449119877	        0.0000000000	       -0.0408344700	        0.0000000000	        0.0000000000	        0.0000000000	        0.0000000000	        0.0000000000	        0.0000000000	
        0.7654292564	       -0.0431666779	        0.0179109045	       -0.0042943158	        0.0000000000	        0.0000000000	        0.0000000000	      -15.7171393012	      582.0368403357	       18.2426537732	        0.9503880875	        0.0000000000	       -0.0407870076	        0.0000000000	        0.0000000000	        0.0000000000	        0.0000000000	        0.0000000000	        0.0000000000	
        0.7765224340	       -0.0913100290	        0.0369194089	       -0.0090325460	        0.0000000000	        0.0000000000	        0.0000000000	      -14.6513796568	      581.0428743813	       18.1612337052	        0.9560755826	        0.0000000000	       -0.0406887021	        0.0000000000	        0.0000000000	        0.0000000000	        0.0000000000	        0.0000000000	        0.0000000000	
        0.7876156117	       -0.1959320681	        0.0774932749	       -0.0191891115	        0.0000000000	        0.0000000000	        0.0000000000	      -13.6417767450	      581.3365451142	       18.0426196922	        0.9618887565	        0.0000000000	       -0.0405479417	        0.0000000000	        0.0000000000	        0.0000000000	        0.0000000000	        0.0000000000	        0.0000000000	
